<svg xmlns="http://www.w3.org/2000/svg" viewBox="0 0 560 320" role="img" aria-labelledby="title"><title id="title">柱状図</title><defs><marker id="arrow" markerWidth="8" markerHeight="8" refX="7" refY="4" orient="auto"><path d="M0 0L8 4L0 8Z" fill="#406758"/></marker></defs><rect width="560" height="320" fill="#fff"/><g stroke="#406758" stroke-width="2" stroke-linejoin="round" font-family="sans-serif"><text x="168" y="29" font-size="20" fill="#203b34" stroke="none">上</text><text x="168" y="314" font-size="20" fill="#203b34" stroke="none">下</text><rect x="150" y="40" width="140" height="36" fill="#e4f0e9"/><text x="315" y="65" font-size="20" fill="#203b34" stroke="none">れき</text><circle cx="165" cy="48" r="3" fill="white"/><circle cx="190" cy="48" r="3" fill="white"/><circle cx="215" cy="48" r="3" fill="white"/><circle cx="240" cy="48" r="3" fill="white"/><circle cx="265" cy="48" r="3" fill="white"/><circle cx="165" cy="64" r="3" fill="white"/><circle cx="190" cy="64" r="3" fill="white"/><circle cx="215" cy="64" r="3" fill="white"/><circle cx="240" cy="64" r="3" fill="white"/><rect x="150" y="76" width="140" height="36" fill="#75887b"/><text x="315" y="101" font-size="20" fill="#203b34" stroke="none">火山灰</text><rect x="150" y="112" width="140" height="36" fill="#e4f0e9"/><text x="315" y="137" font-size="20" fill="#203b34" stroke="none">泥</text><line x1="152" y1="117" x2="288" y2="117" /><line x1="152" y1="122" x2="288" y2="122" /><line x1="152" y1="127" x2="288" y2="127" /><line x1="152" y1="132" x2="288" y2="132" /><line x1="152" y1="137" x2="288" y2="137" /><rect x="150" y="148" width="140" height="36" fill="#e4f0e9"/><text x="315" y="173" font-size="20" fill="#203b34" stroke="none">砂</text><rect x="150" y="184" width="140" height="36" fill="#75887b"/><text x="315" y="209" font-size="20" fill="#203b34" stroke="none">火山灰</text><rect x="150" y="220" width="140" height="36" fill="#e4f0e9"/><text x="315" y="245" font-size="20" fill="#203b34" stroke="none">砂</text><rect x="150" y="256" width="140" height="36" fill="#e4f0e9"/><text x="315" y="281" font-size="20" fill="#203b34" stroke="none">れき</text><circle cx="165" cy="264" r="3" fill="white"/><circle cx="190" cy="264" r="3" fill="white"/><circle cx="215" cy="264" r="3" fill="white"/><circle cx="240" cy="264" r="3" fill="white"/><circle cx="265" cy="264" r="3" fill="white"/><circle cx="165" cy="280" r="3" fill="white"/><circle cx="190" cy="280" r="3" fill="white"/><circle cx="215" cy="280" r="3" fill="white"/><circle cx="240" cy="280" r="3" fill="white"/></g></svg>
