<svg xmlns="http://www.w3.org/2000/svg" viewBox="0 0 560 320" role="img" aria-labelledby="title"><title id="title">地球の公転</title><defs><marker id="arrow" markerWidth="8" markerHeight="8" refX="7" refY="4" orient="auto"><path d="M0 0L8 4L0 8Z" fill="#406758"/></marker></defs><rect width="560" height="320" fill="#fff"/><g stroke="#406758" stroke-width="2" stroke-linejoin="round" font-family="sans-serif"><ellipse cx="280" cy="160" rx="198" ry="110" fill="none"/><circle cx="280" cy="160" r="28" fill="#f3d783"/><text x="259" y="168" font-size="16" fill="#203b34" stroke="none">太陽</text><circle cx="82" cy="160" r="24" fill="#d8eaf1"/><line x1="64" y1="194" x2="100" y2="126" /><text x="97" y="128" font-size="12" fill="#203b34" stroke="none">北</text><text x="38" y="167" font-size="20" fill="#203b34" stroke="none">A</text><circle cx="280" cy="50" r="24" fill="#d8eaf1"/><line x1="262" y1="84" x2="298" y2="16" /><text x="295" y="18" font-size="12" fill="#203b34" stroke="none">北</text><text x="236" y="57" font-size="20" fill="#203b34" stroke="none">B</text><circle cx="478" cy="160" r="24" fill="#d8eaf1"/><line x1="460" y1="194" x2="496" y2="126" /><text x="493" y="128" font-size="12" fill="#203b34" stroke="none">北</text><text x="434" y="167" font-size="20" fill="#203b34" stroke="none">C</text><circle cx="280" cy="270" r="24" fill="#d8eaf1"/><line x1="262" y1="304" x2="298" y2="236" /><text x="295" y="238" font-size="12" fill="#203b34" stroke="none">北</text><text x="236" y="277" font-size="20" fill="#203b34" stroke="none">D</text><line x1="100" y1="204" x2="203" y2="262" marker-end="url(#arrow)"/><line x1="356" y1="260" x2="460" y2="205" marker-end="url(#arrow)"/><line x1="465" y1="112" x2="355" y2="59" marker-end="url(#arrow)"/><line x1="203" y1="58" x2="99" y2="115" marker-end="url(#arrow)"/><text x="16" y="309" font-size="15" fill="#203b34" stroke="none">地軸の傾く向きは一定（距離や大きさは模式的）</text></g></svg>
