<svg xmlns="http://www.w3.org/2000/svg" viewBox="0 0 560 320" role="img" aria-labelledby="title"><title id="title">火成岩の組織</title><defs><marker id="arrow" markerWidth="8" markerHeight="8" refX="7" refY="4" orient="auto"><path d="M0 0L8 4L0 8Z" fill="#406758"/></marker></defs><rect width="560" height="320" fill="#fff"/><g stroke="#406758" stroke-width="2" stroke-linejoin="round" font-family="sans-serif"><rect x="40" y="55" width="205" height="220" fill="#e4f0e9"/><rect x="310" y="55" width="205" height="220" fill="#e4f0e9"/><text x="130" y="35" font-size="20" fill="#203b34" stroke="none">A</text><text x="401" y="35" font-size="20" fill="#203b34" stroke="none">B</text><circle cx="50" cy="65" r="1.4" fill="#406758"/><circle cx="87" cy="126" r="1.4" fill="#406758"/><circle cx="124" cy="187" r="1.4" fill="#406758"/><circle cx="161" cy="248" r="1.4" fill="#406758"/><circle cx="198" cy="113" r="1.4" fill="#406758"/><circle cx="55" cy="174" r="1.4" fill="#406758"/><circle cx="92" cy="235" r="1.4" fill="#406758"/><circle cx="129" cy="100" r="1.4" fill="#406758"/><circle cx="166" cy="161" r="1.4" fill="#406758"/><circle cx="203" cy="222" r="1.4" fill="#406758"/><circle cx="60" cy="87" r="1.4" fill="#406758"/><circle cx="97" cy="148" r="1.4" fill="#406758"/><circle cx="134" cy="209" r="1.4" fill="#406758"/><circle cx="171" cy="74" r="1.4" fill="#406758"/><circle cx="208" cy="135" r="1.4" fill="#406758"/><circle cx="65" cy="196" r="1.4" fill="#406758"/><circle cx="102" cy="257" r="1.4" fill="#406758"/><circle cx="139" cy="122" r="1.4" fill="#406758"/><circle cx="176" cy="183" r="1.4" fill="#406758"/><circle cx="213" cy="244" r="1.4" fill="#406758"/><circle cx="70" cy="109" r="1.4" fill="#406758"/><circle cx="107" cy="170" r="1.4" fill="#406758"/><circle cx="144" cy="231" r="1.4" fill="#406758"/><circle cx="181" cy="96" r="1.4" fill="#406758"/><circle cx="218" cy="157" r="1.4" fill="#406758"/><circle cx="75" cy="218" r="1.4" fill="#406758"/><circle cx="112" cy="83" r="1.4" fill="#406758"/><circle cx="149" cy="144" r="1.4" fill="#406758"/><circle cx="186" cy="205" r="1.4" fill="#406758"/><circle cx="223" cy="70" r="1.4" fill="#406758"/><circle cx="80" cy="131" r="1.4" fill="#406758"/><circle cx="117" cy="192" r="1.4" fill="#406758"/><circle cx="154" cy="253" r="1.4" fill="#406758"/><circle cx="191" cy="118" r="1.4" fill="#406758"/><circle cx="228" cy="179" r="1.4" fill="#406758"/><circle cx="85" cy="240" r="1.4" fill="#406758"/><circle cx="122" cy="105" r="1.4" fill="#406758"/><circle cx="159" cy="166" r="1.4" fill="#406758"/><circle cx="196" cy="227" r="1.4" fill="#406758"/><circle cx="53" cy="92" r="1.4" fill="#406758"/><circle cx="90" cy="153" r="1.4" fill="#406758"/><circle cx="127" cy="214" r="1.4" fill="#406758"/><circle cx="164" cy="79" r="1.4" fill="#406758"/><circle cx="201" cy="140" r="1.4" fill="#406758"/><circle cx="58" cy="201" r="1.4" fill="#406758"/><circle cx="95" cy="66" r="1.4" fill="#406758"/><circle cx="132" cy="127" r="1.4" fill="#406758"/><circle cx="169" cy="188" r="1.4" fill="#406758"/><circle cx="206" cy="249" r="1.4" fill="#406758"/><circle cx="63" cy="114" r="1.4" fill="#406758"/><circle cx="100" cy="175" r="1.4" fill="#406758"/><circle cx="137" cy="236" r="1.4" fill="#406758"/><circle cx="174" cy="101" r="1.4" fill="#406758"/><circle cx="211" cy="162" r="1.4" fill="#406758"/><circle cx="68" cy="223" r="1.4" fill="#406758"/><path d="M85 95l25 -8l14 23l-24 12l-15 -27Z" fill="#b4c8b2"/><path d="M170 180l25 -8l14 23l-24 12l-15 -27Z" fill="#b4c8b2"/><path d="M105 230l25 -8l14 23l-24 12l-15 -27Z" fill="#b4c8b2"/><path d="M204 110l25 -8l14 23l-24 12l-15 -27Z" fill="#b4c8b2"/><path d="M310 55h51v55h-51Z" fill="#94ac99"/><path d="M361 55h51v55h-51Z" fill="#d8e2d4"/><path d="M412 55h51v55h-51Z" fill="#f4f6ee"/><path d="M463 55h51v55h-51Z" fill="#94ac99"/><path d="M310 110h51v55h-51Z" fill="#d8e2d4"/><path d="M361 110h51v55h-51Z" fill="#f4f6ee"/><path d="M412 110h51v55h-51Z" fill="#94ac99"/><path d="M463 110h51v55h-51Z" fill="#d8e2d4"/><path d="M310 165h51v55h-51Z" fill="#f4f6ee"/><path d="M361 165h51v55h-51Z" fill="#94ac99"/><path d="M412 165h51v55h-51Z" fill="#d8e2d4"/><path d="M463 165h51v55h-51Z" fill="#f4f6ee"/><path d="M310 220h51v55h-51Z" fill="#94ac99"/><path d="M361 220h51v55h-51Z" fill="#d8e2d4"/><path d="M412 220h51v55h-51Z" fill="#f4f6ee"/><path d="M463 220h51v55h-51Z" fill="#94ac99"/></g></svg>
